<svg width="438" height="60" viewBox="0 0 438 60" fill="none" xmlns="http://www.w3.org/2000/svg">
<path d="M3 49.5042L38.6595 49.554L35.168 43.5687L6.32521 43.5188L3 49.5042Z" fill="white"/>
<path d="M48 49.4428L29.989 18.0212L26.6954 24.4971L41.1534 49.5542L48 49.4428Z" fill="white"/>
<path d="M25.8691 11L6.77245 42.0624L14.0846 41.8529L29.2658 16.9987L25.8691 11Z" fill="white"/>
<path d="M25.9356 30.1016L20.1763 40.0772H31.6965L25.9356 30.1016Z" fill="white"/>
<path d="M67.2 22.52C67.3333 19.8533 68.2667 17.8 70 16.36C71.76 14.8933 74.0667 14.16 76.92 14.16C78.8667 14.16 80.5333 14.5067 81.92 15.2C83.3067 15.8667 84.3467 16.7867 85.04 17.96C85.76 19.1067 86.12 20.4133 86.12 21.88C86.12 23.56 85.68 24.9867 84.8 26.16C83.9467 27.3067 82.92 28.08 81.72 28.48V28.64C83.2667 29.12 84.4667 29.9733 85.32 31.2C86.2 32.4267 86.64 34 86.64 35.92C86.64 37.52 86.2667 38.9467 85.52 40.2C84.8 41.4533 83.72 42.44 82.28 43.16C80.8667 43.8533 79.16 44.2 77.16 44.2C74.1467 44.2 71.6933 43.44 69.8 41.92C67.9067 40.4 66.9067 38.16 66.8 35.2H72.24C72.2933 36.5067 72.7333 37.56 73.56 38.36C74.4133 39.1333 75.5733 39.52 77.04 39.52C78.4 39.52 79.44 39.1467 80.16 38.4C80.9067 37.6267 81.28 36.64 81.28 35.44C81.28 33.84 80.7733 32.6933 79.76 32C78.7467 31.3067 77.1733 30.96 75.04 30.96H73.88V26.36H75.04C78.8267 26.36 80.72 25.0933 80.72 22.56C80.72 21.4133 80.3733 20.52 79.68 19.88C79.0133 19.24 78.04 18.92 76.76 18.92C75.5067 18.92 74.5333 19.2667 73.84 19.96C73.1733 20.6267 72.7867 21.48 72.68 22.52H67.2ZM101.465 16.08C104.399 16.08 106.972 16.6533 109.185 17.8C111.425 18.9467 113.145 20.5867 114.345 22.72C115.572 24.8267 116.185 27.28 116.185 30.08C116.185 32.88 115.572 35.3333 114.345 37.44C113.145 39.52 111.425 41.1333 109.185 42.28C106.972 43.4267 104.399 44 101.465 44H91.7053V16.08H101.465ZM101.265 39.24C104.199 39.24 106.465 38.44 108.065 36.84C109.665 35.24 110.465 32.9867 110.465 30.08C110.465 27.1733 109.665 24.9067 108.065 23.28C106.465 21.6267 104.199 20.8 101.265 20.8H97.3053V39.24H101.265ZM134.777 44L128.617 33.12H125.977V44H120.377V16.08H130.857C133.017 16.08 134.857 16.4667 136.377 17.24C137.897 17.9867 139.031 19.0133 139.777 20.32C140.551 21.6 140.937 23.04 140.937 24.64C140.937 26.48 140.404 28.1467 139.337 29.64C138.271 31.1067 136.684 32.12 134.577 32.68L141.257 44H134.777ZM125.977 28.92H130.657C132.177 28.92 133.311 28.56 134.057 27.84C134.804 27.0933 135.177 26.0667 135.177 24.76C135.177 23.48 134.804 22.4933 134.057 21.8C133.311 21.08 132.177 20.72 130.657 20.72H125.977V28.92ZM163.122 38.68H152.002L150.162 44H144.282L154.322 16.04H160.842L170.882 44H164.962L163.122 38.68ZM161.602 34.2L157.562 22.52L153.522 34.2H161.602ZM194.075 24.48C193.435 23.3067 192.555 22.4133 191.435 21.8C190.315 21.1867 189.008 20.88 187.515 20.88C185.862 20.88 184.395 21.2533 183.115 22C181.835 22.7467 180.835 23.8133 180.115 25.2C179.395 26.5867 179.035 28.1867 179.035 30C179.035 31.8667 179.395 33.4933 180.115 34.88C180.862 36.2667 181.888 37.3333 183.195 38.08C184.502 38.8267 186.022 39.2 187.755 39.2C189.888 39.2 191.635 38.64 192.995 37.52C194.355 36.3733 195.248 34.7867 195.675 32.76H186.075V28.48H201.195V33.36C200.822 35.3067 200.022 37.1067 198.795 38.76C197.568 40.4133 195.982 41.7467 194.035 42.76C192.115 43.7467 189.955 44.24 187.555 44.24C184.862 44.24 182.422 43.64 180.235 42.44C178.075 41.2133 176.368 39.52 175.115 37.36C173.888 35.2 173.275 32.7467 173.275 30C173.275 27.2533 173.888 24.8 175.115 22.64C176.368 20.4533 178.075 18.76 180.235 17.56C182.422 16.3333 184.848 15.72 187.515 15.72C190.662 15.72 193.395 16.4933 195.715 18.04C198.035 19.56 199.635 21.7067 200.515 24.48H194.075ZM218.298 44.28C215.685 44.28 213.285 43.6667 211.098 42.44C208.911 41.2133 207.178 39.52 205.898 37.36C204.618 35.1733 203.978 32.7067 203.978 29.96C203.978 27.24 204.618 24.8 205.898 22.64C207.178 20.4533 208.911 18.7467 211.098 17.52C213.285 16.2933 215.685 15.68 218.298 15.68C220.938 15.68 223.338 16.2933 225.498 17.52C227.685 18.7467 229.405 20.4533 230.658 22.64C231.938 24.8 232.578 27.24 232.578 29.96C232.578 32.7067 231.938 35.1733 230.658 37.36C229.405 39.52 227.685 41.2133 225.498 42.44C223.311 43.6667 220.911 44.28 218.298 44.28ZM218.298 39.28C219.978 39.28 221.458 38.9067 222.738 38.16C224.018 37.3867 225.018 36.2933 225.738 34.88C226.458 33.4667 226.818 31.8267 226.818 29.96C226.818 28.0933 226.458 26.4667 225.738 25.08C225.018 23.6667 224.018 22.5867 222.738 21.84C221.458 21.0933 219.978 20.72 218.298 20.72C216.618 20.72 215.125 21.0933 213.818 21.84C212.538 22.5867 211.538 23.6667 210.818 25.08C210.098 26.4667 209.738 28.0933 209.738 29.96C209.738 31.8267 210.098 33.4667 210.818 34.88C211.538 36.2933 212.538 37.3867 213.818 38.16C215.125 38.9067 216.618 39.28 218.298 39.28ZM260.624 44H255.024L242.344 24.84V44H236.744V16.04H242.344L255.024 35.24V16.04H260.624V44ZM274.33 30C274.33 27.2533 274.943 24.8 276.17 22.64C277.423 20.4533 279.116 18.76 281.25 17.56C283.41 16.3333 285.823 15.72 288.49 15.72C291.61 15.72 294.343 16.52 296.69 18.12C299.036 19.72 300.676 21.9333 301.61 24.76H295.17C294.53 23.4267 293.623 22.4267 292.45 21.76C291.303 21.0933 289.97 20.76 288.45 20.76C286.823 20.76 285.37 21.1467 284.09 21.92C282.836 22.6667 281.85 23.7333 281.13 25.12C280.436 26.5067 280.09 28.1333 280.09 30C280.09 31.84 280.436 33.4667 281.13 34.88C281.85 36.2667 282.836 37.3467 284.09 38.12C285.37 38.8667 286.823 39.24 288.45 39.24C289.97 39.24 291.303 38.9067 292.45 38.24C293.623 37.5467 294.53 36.5333 295.17 35.2H301.61C300.676 38.0533 299.036 40.28 296.69 41.88C294.37 43.4533 291.636 44.24 288.49 44.24C285.823 44.24 283.41 43.64 281.25 42.44C279.116 41.2133 277.423 39.52 276.17 37.36C274.943 35.2 274.33 32.7467 274.33 30ZM323.513 38.68H312.393L310.553 44H304.673L314.713 16.04H321.233L331.273 44H325.353L323.513 38.68ZM321.993 34.2L317.953 22.52L313.913 34.2H321.993ZM355.386 24.72C355.386 26.2133 355.026 27.6133 354.306 28.92C353.612 30.2267 352.506 31.28 350.986 32.08C349.492 32.88 347.599 33.28 345.306 33.28H340.626V44H335.026V16.08H345.306C347.466 16.08 349.306 16.4533 350.826 17.2C352.346 17.9467 353.479 18.9733 354.226 20.28C354.999 21.5867 355.386 23.0667 355.386 24.72ZM345.066 28.76C346.612 28.76 347.759 28.4133 348.506 27.72C349.252 27 349.626 26 349.626 24.72C349.626 22 348.106 20.64 345.066 20.64H340.626V28.76H345.066ZM364.962 16.08V44H359.362V16.08H364.962ZM389.494 16.08V20.6H382.054V44H376.454V20.6H369.014V16.08H389.494ZM410.7 38.68H399.58L397.74 44H391.86L401.9 16.04H408.42L418.46 44H412.54L410.7 38.68ZM409.18 34.2L405.14 22.52L401.1 34.2H409.18ZM427.813 39.56H437.013V44H422.213V16.08H427.813V39.56Z" fill="white"/>
</svg>
