<?xml version="1.0" encoding="utf-8"?>
<!-- Generator: Adobe Illustrator 16.0.0, SVG Export Plug-In . SVG Version: 6.00 Build 0)  -->
<!DOCTYPE svg PUBLIC "-//W3C//DTD SVG 1.1//EN" "http://www.w3.org/Graphics/SVG/1.1/DTD/svg11.dtd">
<svg version="1.1" xmlns="http://www.w3.org/2000/svg" xmlns:xlink="http://www.w3.org/1999/xlink" x="0px" y="0px" width="1024px"
	 height="720px" viewBox="0 0 1024 720" fill="None" xml:space="preserve">
<g id="Layer_2">
	<g>
		<g>
			<path fill="#FFFFFF" d="M351.108,311.143c0-2.199,0.257-4.913,0.386-6.335h13.702c-0.129,1.94-0.129,3.362-0.129,4.137
				c0,10.472,6.98,16.287,19.26,16.287c12.798,0,20.167-5.945,20.167-15.77c0-7.109-4.784-10.858-13.702-10.858h-13.056v-9.954
				h10.987c8.402,0,12.797-4.525,12.797-11.894c0-8.53-6.333-13.572-16.545-13.572c-11.892,0-18.227,5.947-18.227,15.642
				c0,2.069,0.129,3.877,0.259,5.041h-13.314c-0.388-1.422-0.647-4.266-0.647-7.367c0-16.03,12.021-25.982,32.316-25.982
				c18.098,0,30.248,8.918,30.248,24.042c0,8.273-4.396,14.865-11.635,16.546v0.388c9.695,1.552,15.512,8.789,15.512,18.872
				c0,17.063-13.186,27.533-35.161,27.533C363.645,337.899,351.108,327.816,351.108,311.143z"/>
			<path fill="#FFFFFF" d="M432.686,251.681h32.574c26.629,0,43.045,15.383,43.045,42.398c0,27.274-15.512,42.657-40.331,42.657
				h-35.289V251.681z M467.717,323.81c15.253,0,25.206-10.211,25.206-29.73c0-19.39-10.729-29.473-27.016-29.473h-17.709v59.203
				H467.717z"/>
			<path fill="#FFFFFF" d="M521.896,251.681h37.355c21.849,0,33.092,9.436,33.092,24.689c0,10.987-4.782,18.484-14.733,20.294v0.259
				c10.34,1.551,14.219,8.791,14.219,19.001v20.812h-15.643v-20.553c0-8.532-3.488-13.186-14.863-13.186h-23.913v33.739h-15.514
				V251.681z M559.51,292.787c12.541,0,17.97-5.429,17.97-14.479c0-8.53-5.946-13.702-18.354-13.702h-21.716v28.181H559.51z"/>
			<path fill="#FFFFFF" d="M664.49,317.605h-39.682l-7.241,19.131h-16.028l34.642-85.055h18.875l34.512,85.055h-17.966
				L664.49,317.605z M660.614,307.264l-15.772-42.398h-0.259l-15.899,42.398H660.614z"/>
			<path fill="#FFFFFF" d="M691.394,295.113c0-27.274,18.872-44.725,43.949-44.725c21.458,0,37.618,11.503,37.618,30.893
				c0,1.422-0.129,3.491-0.259,5.042h-13.831c0.13-1.551,0.13-2.974,0.13-4.137c0-12.022-10.344-18.874-23.398-18.874
				c-16.417,0-28.569,12.28-28.569,31.928c0,19.002,12.541,30.766,27.922,30.766c13.572,0,23.657-7.886,23.657-19.39v-1.939H732.24
				v-9.824h41.365v41.882H760.68c0.259-3.361,0.647-9.436,0.776-15.253h-0.129c-2.585,9.824-12.152,16.545-27.663,16.545
				C709.363,338.029,691.394,321.742,691.394,295.113z"/>
			<path fill="#FFFFFF" d="M786.159,293.82c0-27.015,19.39-43.432,44.079-43.432c24.819,0,44.209,16.417,44.209,43.432
				c0,27.533-19.39,44.208-44.209,44.208C805.549,338.029,786.159,321.354,786.159,293.82z M858.678,293.82
				c0-19.001-12.67-30.506-28.439-30.506c-15.64,0-28.31,11.505-28.31,30.506c0,19.52,12.67,31.282,28.31,31.282
				C846.008,325.102,858.678,313.34,858.678,293.82z"/>
			<path fill="#FFFFFF" d="M888.04,251.681h23.27l40.459,64.632h0.259l-0.259-64.632h14.607v85.055h-18.357l-45.37-72.13h-0.13
				l0.13,72.13H888.04V251.681z"/>
			<path fill="#FFFFFF" d="M351.624,423.088c0-27.146,18.097-43.949,43.69-43.949c22.363,0,38.264,13.313,38.264,32.965
				c0,0.902-0.129,2.582-0.259,4.135h-13.702c0.129-1.161,0.129-2.196,0.129-2.844c0-13.059-10.212-21.327-23.915-21.327
				c-16.545,0-28.438,12.019-28.438,31.021c0,19.001,12.41,30.766,28.438,30.766c14.22,0,24.174-8.144,24.174-20.426v-2.063h13.831
				v2.974c0,19.26-16.03,32.44-38.522,32.44C369.98,466.778,351.624,450.106,351.624,423.088z"/>
			<path fill="#FFFFFF" d="M501.329,446.356h-39.684l-7.239,19.131h-16.028l34.643-85.055h18.872l34.512,85.055h-17.966
				L501.329,446.356z M497.451,436.017l-15.769-42.4h-0.259l-15.9,42.4H497.451z"/>
			<path fill="#FFFFFF" d="M537.542,380.433h35.159c21.068,0,33.479,10.599,33.479,29.601c0,18.483-11.116,29.083-31.542,29.083
				h-21.586v26.371h-15.511V380.433z M573.733,428.132c11.246,0,17.71-5.688,17.71-17.322c0-11.246-6.853-17.452-19.26-17.452
				h-19.131v34.774H573.733z"/>
			<path fill="#FFFFFF" d="M637.74,393.229h-26.371v-12.796h68.25v12.796h-26.368v72.259H637.74V393.229z"/>
			<path fill="#FFFFFF" d="M691.139,380.433h15.381v85.055h-15.381V380.433z"/>
			<path fill="#FFFFFF" d="M781.108,446.356h-39.682l-7.241,19.131h-16.028l34.642-85.055h18.875l34.512,85.055H788.22
				L781.108,446.356z M777.232,436.017l-15.772-42.4h-0.259l-15.899,42.4H777.232z"/>
			<path fill="#FFFFFF" d="M817.32,380.433h15.511v72.13h42.141v12.925H817.32V380.433z"/>
		</g>
		<g>
			<g>
				<path fill="#FFFFFF" d="M109.492,335.442l84.524,134.173V321.99l-22.668-20.533L109.492,335.442z M178.325,415.266
					l-46.678-74.092l37.458-20.577l9.221,8.352V415.266z"/>
			</g>
			<g>
				<polygon fill="#FFFFFF" points="215.373,249.715 197.087,268.001 178.799,249.715 58.112,249.715 107.43,330.207 
					166.834,298.111 154.485,286.502 113.278,308.955 113.035,308.56 86.922,265.838 172.105,265.838 197.087,290.781 
					222.068,265.838 307.249,265.838 281.138,308.56 280.895,308.955 239.686,286.502 227.338,298.111 286.744,330.207 
					336.059,249.715 				"/>
			</g>
			<g>
				<polygon fill="#FFFFFF" points="200.156,321.99 200.156,469.615 237.701,410.02 224.922,400.861 215.849,415.266 
					215.849,328.948 225.069,320.597 262.526,341.174 255.55,352.247 269.379,359.731 284.68,335.442 222.824,301.457 				"/>
			</g>
		</g>
	</g>
</g>
</svg>
